<?xml version="1.0" standalone="no"?>
<!DOCTYPE svg PUBLIC "-//W3C//DTD SVG 20010904//EN"
 "http://www.w3.org/TR/2001/REC-SVG-20010904/DTD/svg10.dtd">
<svg version="1.0" xmlns="http://www.w3.org/2000/svg"
 width="512.000000pt" height="512.000000pt" viewBox="0 0 512.000000 512.000000"
 preserveAspectRatio="xMidYMid meet">
<metadata>
Created by potrace 1.11, written by Peter Selinger 2001-2013
</metadata>
<g transform="translate(0.000000,512.000000) scale(0.100000,-0.100000)"
fill="#000000" stroke="none">
<path d="M1218 4515 c-25 -6 -65 -27 -89 -45 -398 -308 -686 -713 -839 -1180
-34 -102 -75 -268 -85 -340 -4 -24 -8 -47 -10 -50 -18 -31 -27 -452 -12 -580
47 -420 209 -836 453 -1167 105 -142 269 -321 379 -413 75 -62 157 -121 182
-131 106 -40 226 39 227 149 1 76 -18 105 -128 194 -456 368 -712 829 -773
1393 -10 92 -10 339 0 440 39 383 210 790 455 1078 76 90 239 245 328 312 70
54 102 91 113 133 18 65 2 119 -49 169 -41 41 -92 53 -152 38z"/>
<path d="M3826 4519 c-79 -22 -137 -98 -131 -175 5 -66 28 -97 122 -170 185
-144 389 -371 506 -566 148 -245 245 -539 274 -833 9 -88 9 -338 0 -430 -35
-369 -178 -729 -406 -1025 -85 -110 -241 -266 -364 -365 -54 -43 -105 -91
-113 -107 -59 -114 23 -250 151 -250 50 0 69 9 150 71 196 148 418 393 552
607 98 156 179 321 236 479 40 109 92 290 102 351 6 42 12 76 19 111 21 102
28 471 12 598 -44 351 -156 677 -339 980 -66 110 -65 108 -176 251 -123 157
-341 368 -464 448 -32 21 -98 34 -131 25z"/>
<path d="M1645 3996 c-48 -21 -183 -127 -268 -209 -257 -253 -437 -596 -499
-951 -27 -158 -29 -420 -3 -545 29 -139 41 -188 71 -273 114 -326 326 -622
588 -820 103 -78 136 -92 195 -83 88 13 152 89 146 175 -4 71 -22 96 -119 167
-258 191 -414 414 -514 733 -23 73 -44 239 -45 360 -1 152 9 237 44 370 63
242 221 499 395 645 32 28 61 53 64 56 3 3 34 26 70 51 70 50 96 85 106 142
19 125 -116 231 -231 182z"/>
<path d="M3344 3991 c-23 -10 -54 -36 -70 -57 -24 -31 -29 -47 -29 -94 1 -73
21 -105 111 -172 232 -174 377 -356 478 -602 57 -137 94 -362 90 -543 -11
-433 -207 -808 -558 -1065 -44 -32 -88 -71 -98 -86 -51 -81 -20 -194 66 -239
77 -40 136 -25 253 66 209 162 375 363 495 603 43 86 93 205 104 248 2 8 12
45 23 83 55 188 72 527 36 697 -3 14 -8 39 -10 55 -3 17 -15 64 -27 105 -109
393 -357 751 -670 966 -80 56 -131 65 -194 35z"/>
<path d="M2139 3480 c-88 -15 -266 -153 -381 -295 -47 -58 -120 -188 -153
-274 -119 -307 -80 -631 109 -913 112 -167 327 -347 431 -361 128 -17 229 118
176 236 -21 49 -34 61 -121 112 -36 21 -99 73 -140 114 -108 110 -162 225
-177 381 -8 92 -8 90 0 170 21 196 133 371 305 476 95 59 110 71 129 109 64
123 -41 268 -178 245z"/>
<path d="M2910 3478 c-91 -25 -145 -117 -120 -207 15 -56 40 -83 122 -131 86
-51 202 -164 245 -241 113 -199 114 -479 1 -677 -44 -78 -130 -166 -217 -222
-113 -73 -120 -78 -137 -112 -60 -116 21 -250 151 -250 137 0 394 235 516 472
127 246 146 503 58 763 -82 240 -260 458 -471 576 -61 34 -99 42 -148 29z"/>
<path d="M2465 2888 c-59 -16 -140 -72 -174 -119 -132 -181 -72 -422 128 -521
38 -19 62 -23 141 -23 89 0 99 2 158 34 70 38 120 92 154 167 19 40 23 66 23
139 -1 79 -4 97 -29 144 -59 114 -165 182 -290 187 -39 2 -89 -2 -111 -8z"/>
</g>
</svg>
